<?xml version="1.0" standalone="no"?>
<!DOCTYPE svg PUBLIC "-//W3C//DTD SVG 20010904//EN"
 "http://www.w3.org/TR/2001/REC-SVG-20010904/DTD/svg10.dtd">
<svg version="1.0" xmlns="http://www.w3.org/2000/svg"
 width="192.000000pt" height="192.000000pt" viewBox="0 0 192.000000 192.000000"
 preserveAspectRatio="xMidYMid meet">

<g transform="translate(0.000000,192.000000) scale(0.100000,-0.100000)"
fill="#000000" stroke="none">
<path d="M0 960 l0 -960 960 0 960 0 0 960 0 960 -960 0 -960 0 0 -960z m1287
458 c-4 -95 -11 -222 -16 -283 -5 -60 -6 -115 -3 -121 4 -7 30 -30 58 -52 102
-80 99 -69 97 -366 -1 -142 -5 -262 -10 -267 -4 -4 -27 -11 -50 -15 l-43 -7 0
186 c0 155 -3 188 -16 201 -19 20 -19 20 -38 0 -13 -13 -16 -46 -16 -200 l0
-184 -50 0 -50 0 0 183 c0 144 -3 187 -14 203 -12 15 -18 17 -33 8 -16 -10
-18 -30 -21 -204 l-2 -193 -47 7 c-25 3 -48 8 -50 10 -2 2 -7 116 -10 253 -7
298 -4 310 93 384 55 42 59 48 62 89 2 25 -1 108 -7 185 -6 77 -13 188 -17
248 l-7 107 98 0 98 0 -6 -172z m-352 33 l90 -6 3 -47 3 -48 -184 0 c-151 0
-187 -3 -197 -15 -7 -8 -10 -22 -6 -30 4 -13 36 -15 201 -15 l195 0 0 -55 0
-55 -197 -2 -198 -3 0 -25 0 -25 193 -3 192 -2 0 -50 c0 -38 -4 -50 -17 -54
-10 -2 -119 -8 -243 -11 -174 -6 -235 -4 -269 6 -45 13 -95 55 -143 119 -25
34 -28 35 -89 35 l-64 0 -3 68 -3 67 70 0 70 0 29 43 c76 108 99 117 307 116
94 -1 211 -4 260 -8z"/>
</g>
</svg>
